<svg width="145.31595" height="216.00569" xmlns="http://www.w3.org/2000/svg">
 <title>Tree_swing</title>

 <g>
  <title>Layer 1</title>
  <path id="svg_2" fill="#3f3d56" d="m393.57997,23.23284a17.53713,17.53713 0 0 1 1.15,3.68c-0.55993,-1.93 -0.99993,-3.24 -1.15,-3.68z"/>
  <path id="svg_23" opacity="0.1" d="m395.71432,26.86425a18.863,18.863 0 0 0 -1.19665,-3.79272s0.50659,1.42267 1.19665,3.79272z"/>
  <path id="svg_27" fill="#ffb9b9" d="m83.26709,87.05566s11.312,-11.86732 15.94175,-9.47984s-13.3119,12.99944 -13.3119,12.99944l-2.62985,-3.5196z"/>
  <path id="svg_28" opacity="0.1" d="m83.26709,87.05566s11.312,-11.86732 15.94175,-9.47984s-13.3119,12.99944 -13.3119,12.99944l-2.62985,-3.5196z"/>
  <path id="svg_29" fill="#d0cde1" d="m48.75328,61.15438s-4.15828,7.45338 -3.07015,15.48817s11.03942,33.81741 14.42249,33.35925s28.44317,-18.92439 28.44317,-18.92439l-4.77955,-6.67359l-18.30725,11.0921s-2.78883,-39.6718 -16.70871,-34.34154z"/>
  <path id="svg_30" fill="#2f2e41" d="m116.63508,79.2987l-28.53941,15.67632a1.35917,1.35917 0 0 1 -1.99837,-0.5895l-6.99131,-14.61354a1.82416,1.82416 0 0 1 0.935,-2.19057l23.69489,-12.21336a1.38345,1.38345 0 0 1 1.813,0.3466l11.83588,11.15054a1.75765,1.75765 0 0 1 -0.74968,2.43351z"/>
  <polygon id="svg_31" fill="#6c63ff" points="114.73040175437927,77.13934326171875 87.97538924217224,92.432373046875 80.85539412498474,79.600341796875 103.80742049217224,67.11834716796875 114.73040175437927,77.13934326171875 "/>
  <ellipse transform="rotate(-50.1585 -902.182 284.651)" id="svg_32" fill="#f2f2f2" ry="0.33582" rx="0.39386" cy="912.10743" cx="-102.33745"/>
  <ellipse transform="rotate(-50.1585 -908.693 296.996)" id="svg_33" fill="#f2f2f2" ry="0.22388" rx="0.26258" cy="937.5808" cx="-98.91428"/>
  <path id="svg_34" opacity="0.1" d="m48.75328,61.15438s-4.15828,7.45338 -3.07015,15.48817s11.03942,33.81741 14.42249,33.35925s28.44317,-18.92439 28.44317,-18.92439l-4.77955,-6.67359l-18.30725,11.0921s-2.78883,-39.6718 -16.70871,-34.34154z"/>
  <path id="svg_35" fill="#ffb9b9" d="m75.61939,89.32328s12.80232,-10.24186 17.06976,-7.25465s-14.936,11.09535 -14.936,11.09535l-2.13376,-3.8407z"/>
  <circle id="svg_36" fill="#ffb9b9" r="12.37558" cy="35.98028" cx="58.5496"/>
  <path id="svg_37" fill="#ffb9b9" d="m101.22401,122.18257s13.22907,1.707 12.80232,9.81512s-10.24185,41.82092 -10.24185,41.82092l-0.85349,13.22906s0.85349,22.1907 -1.707,21.764s-8.53488,-15.78953 -8.53488,-15.78953s-7.25465,-4.69418 -3.8407,-8.96162s5.97442,-3.8407 5.12093,-8.53489s-0.42674,-24.32441 2.13372,-30.29883s4.05243,-9.26959 4.05243,-9.26959l-8.31987,-0.54552l9.38839,-13.22912z"/>
  <path id="svg_38" opacity="0.1" d="m101.22401,122.18257s13.22907,1.707 12.80232,9.81512s-10.24185,41.82092 -10.24185,41.82092l-0.85349,13.22906s0.85349,22.1907 -1.707,21.764s-8.53488,-15.78953 -8.53488,-15.78953s-7.25465,-4.69418 -3.8407,-8.96162s5.97442,-3.8407 5.12093,-8.53489s-0.42674,-24.32441 2.13372,-30.29883s4.05243,-9.26959 4.05243,-9.26959l-8.31987,-0.54552l9.38839,-13.22912z"/>
  <path id="svg_39" fill="#ffb9b9" d="m102.0775,124.3163s12.80232,2.9872 14.08255,11.52209s7.6814,33.71278 7.6814,33.71278l6.8279,15.78953s10.6686,19.20348 5.97442,18.77674s-11.09535,-9.81512 -13.22907,-9.81512s-8.53488,-2.56046 -8.10813,-4.26744s3.414,-6.8279 3.414,-6.8279l-10.32454,-17.98468a43.68247,43.68247 0 0 1 -4.47815,-11.08309c-1.06057,-4.21218 -2.26707,-9.37191 -2.26707,-11.04618c0,-2.9872 -8.53489,-4.26744 -8.53489,-4.26744l8.96158,-14.50929z"/>
  <path id="svg_40" fill="#2f2e41" d="m60.25658,97.00467l5.97442,17.06977s9.38837,2.56046 16.21627,4.69418s19.63023,-0.85349 20.91046,4.26744s-2.56046,14.08256 -6.40116,16.21628s-5.97442,4.26744 -18.35,0.85349s-41.82092,-4.26744 -41.82092,-4.26744a21.39177,21.39177 0 0 1 -9.38837,2.9872c-5.54768,0.42675 -6.82791,0.85349 -8.53488,-0.42674s0.85348,-1.28023 1.707,-4.69419s1.28023,-2.13372 5.12093,-5.97441s6.82791,-15.36279 8.96163,-19.20349s3.414,-11.52209 3.414,-11.52209l22.19062,0z"/>
  <path id="svg_41" fill="#ffb9b9" d="m59.40309,46.22213a12.49559,12.49559 0 0 0 -5.12093,9.81511c0,6.40116 -12.80232,-6.8279 -12.80232,-6.8279s6.82791,-8.53488 6.82791,-11.09535s11.09534,8.10814 11.09534,8.10814z"/>
  <path id="svg_42" fill="#d0cde1" d="m43.18682,43.66167s7.68139,2.9872 9.38837,7.25464s8.10813,13.22907 8.10813,13.22907s8.96163,9.38837 5.97442,19.63023s-5.54767,12.80232 -5.54767,14.5093s-4.26744,4.69418 -7.68139,4.26744s-16.21628,-2.13372 -17.06977,-3.8407s-5.97441,-26.03139 -2.56046,-34.993a207.06676,207.06676 0 0 1 9.38837,-20.05698z"/>
  <path id="svg_43" fill="#2f2e41" d="m62.13901,36.5434c2.7694,0.65727 5.48713,-1.10722 7.75636,-2.85664c1.28856,-0.99339 2.70672,-2.41 2.31191,-4.0088c-0.35025,-1.41836 -2.02116,-2.22231 -2.26434,-3.66384c-0.169,-1.00169 0.41653,-1.97623 0.464,-2.99152a4.22577,4.22577 0 0 0 -2.48441,-3.62394c-1.3493,-0.72658 -2.87961,-1.0295 -4.26575,-1.67973c-2.11673,-0.993 -3.87592,-2.78292 -6.13659,-3.35629c-3.0884,-0.78332 -6.23312,0.88448 -9.40831,1.10039c-1.92153,0.13066 -3.8676,-0.27452 -5.76848,0.0407a8.23441,8.23441 0 0 0 -6.597,7.77339c-0.02449,1.35819 0.24692,2.87349 -0.56352,3.95064a5.97766,5.97766 0 0 1 -1.08592,0.98314c-2.82372,2.2835 -4.10575,6.09851 -4.25151,9.77387c-0.07174,1.80894 0.30717,3.95783 1.91207,4.72676a7.08811,7.08811 0 0 0 2.67525,0.37168a2.79426,2.79426 0 0 1 2.36206,1.12773c0.731,1.28961 -0.36425,3.19439 0.592,4.31981c0.7183,0.84535 2.11935,0.56459 2.95821,-0.15572s1.362,-1.75625 2.15718,-2.52648c1.54685,-1.49827 3.84134,-1.76986 5.96156,-1.99763a3.024,3.024 0 0 0 1.74865,-0.57341a2.70264,2.70264 0 0 0 0.71719,-1.47043a9.1133,9.1133 0 0 0 0.01057,-3.8609a2.14631,2.14631 0 0 1 -0.04885,-1.22235a1.73436,1.73436 0 0 1 0.62589,-0.701c1.31411,-0.98713 3.6162,-2.4244 5.324,-2.15253c1.89516,0.30166 3.38609,2.2194 5.29778,2.6731z"/>
  <path id="svg_44" fill="#d0cde1" d="m44.89379,59.02445s-5.12092,6.82791 -5.12092,14.936s6.40116,34.993 9.81511,34.993s30.72557,-14.936 30.72557,-14.936l-3.84069,-7.25465l-19.63023,8.53488s2.56046,-39.68718 -11.94884,-36.27323z"/>
  <rect id="svg_45" fill="#6c63ff" height="19" width="98" y="136.05121" x="4.83718"/>
  <rect id="svg_47" fill="#3f3d56" height="2" width="806" y="674.00569" x="49.31595"/>
  <ellipse transform="rotate(-38.7682 -908.821 39.7758)" id="svg_48" fill="#6c63ff" ry="3" rx="1" cy="622.77929" cx="-164.16366"/>
  <path id="svg_59" fill="#3f3d56" d="m693.65797,94.00284"/>
 </g>
</svg>